<svg id="bootstrap4" xmlns="http://www.w3.org/2000/svg" width="256" height="256" viewBox="0 0 256 256">
  <path id="Path_21" data-name="Path 21" d="M0,222.991A33.008,33.008,0,0,0,33.009,256H222.99A33.008,33.008,0,0,0,256,222.991V33.01A33.008,33.008,0,0,0,222.991,0H33.01A33.008,33.008,0,0,0,0,33.009V222.99Z" fill="#563d7c"/>
  <path id="Path_22" data-name="Path 22" d="M106.158,113.238V76.985h31.911a49.637,49.637,0,0,1,8.792.76,21.944,21.944,0,0,1,7.49,2.713,14.471,14.471,0,0,1,5.21,5.427,18.023,18.023,0,0,1,1.954,8.9q0,9.77-5.862,14.111t-14.979,4.342H106.158ZM72.075,50.5v155h75.112a79.246,79.246,0,0,0,20.3-2.6,54.287,54.287,0,0,0,17.584-8.032,39.564,39.564,0,0,0,12.265-14q4.56-8.575,4.559-20.3,0-14.546-7.055-24.856T173.454,121.27q10.421-4.992,15.74-12.808t5.318-19.538q0-10.854-3.582-18.235a29.789,29.789,0,0,0-10.1-11.831,43.568,43.568,0,0,0-15.63-6.4A96.5,96.5,0,0,0,145.016,50.5H72.075Zm34.083,128.515V136.466h37.121q11.071,0,17.8,5.1t6.73,17.041a21.3,21.3,0,0,1-2.063,9.986,16.381,16.381,0,0,1-5.536,6.187,23.444,23.444,0,0,1-8.032,3.257,45.573,45.573,0,0,1-9.552.976h-36.47Z" fill="#fff"/>
</svg>
