<svg xmlns="http://www.w3.org/2000/svg" width="255.582" height="287.252" viewBox="0 0 255.582 287.252">
  <g id="c-sharp" transform="translate(0 -0.268)">
    <path id="Path_21" data-name="Path 21" d="M255.569,84.72a25.365,25.365,0,0,0-3.124-12.761,24.4,24.4,0,0,0-9.247-9.008Q192.16,33.523,141.1,4.134c-9.17-5.294-18.061-5.1-27.163.269C100.395,12.39,32.59,51.237,12.385,62.94,4.064,67.757.015,75.129.013,84.711Q-.007,143.894,0,203.076a25.476,25.476,0,0,0,2.988,12.517,24.317,24.317,0,0,0,9.386,9.254c20.206,11.7,88.02,50.547,101.56,58.536,9.106,5.373,18,5.565,27.17.269q51.022-29.46,102.105-58.817a24.326,24.326,0,0,0,9.386-9.252,25.51,25.51,0,0,0,2.987-12.518s0-78.889-.013-118.345" fill="#5c8dbc"/>
    <path id="Path_22" data-name="Path 22" d="M128.182,143.509,2.988,215.593a24.317,24.317,0,0,0,9.386,9.254c20.206,11.7,88.02,50.547,101.56,58.536,9.106,5.373,18,5.565,27.17.269q51.022-29.46,102.105-58.817a24.326,24.326,0,0,0,9.386-9.252L128.182,143.509" fill="#1a4674"/>
    <path id="Path_23" data-name="Path 23" d="M91.1,164.861a42.253,42.253,0,0,0,73.518-.245l-36.437-21.107L91.1,164.861" fill="#1a4674"/>
    <path id="Path_24" data-name="Path 24" d="M255.569,84.72a25.365,25.365,0,0,0-3.124-12.761l-124.263,71.55L252.6,215.583a25.51,25.51,0,0,0,2.987-12.518s0-78.889-.013-118.345" fill="#1b598e"/>
    <path id="Path_25" data-name="Path 25" d="M248.728,148.661h-9.722v9.724h-9.724v-9.724h-9.721V138.94h9.721v-9.722h9.724v9.722h9.722v9.721m-35.475,0h-9.721v9.724H193.81v-9.724h-9.722V138.94h9.722v-9.722h9.722v9.722h9.721v9.721" fill="#fff"/>
    <path id="Path_26" data-name="Path 26" d="M164.619,164.616a42.263,42.263,0,1,1-.275-41.927l36.941-21.272a84.875,84.875,0,1,0,.22,84.57l-36.886-21.371" fill="#fff"/>
  </g>
</svg>
