<svg xmlns="http://www.w3.org/2000/svg" width="255.266" height="106.62" viewBox="0 0 255.266 106.62">
  <g id="git" transform="translate(-0.001 -0.923)">
    <path id="Path_23" data-name="Path 23" d="M152.984,37.214c-5.6,0-9.765,2.748-9.765,9.362,0,4.983,2.747,8.443,9.463,8.443,5.693,0,9.56-3.355,9.56-8.65,0-6-3.46-9.155-9.258-9.155Zm-11.19,46.7c-1.325,1.625-2.645,3.353-2.645,5.39,0,4.067,5.186,5.291,12.31,5.291,5.9,0,13.938-.414,13.938-5.9,0-3.261-3.867-3.462-8.753-3.768l-14.85-1.013Zm30.113-46.394A16.136,16.136,0,0,1,175.671,47.8c0,11.292-8.851,17.9-21.667,17.9a32.345,32.345,0,0,1-8.038-.914l-3.359,5.39,9.969.61c17.6,1.122,27.975,1.632,27.975,15.157,0,11.7-10.272,18.311-27.975,18.311-18.413,0-25.433-4.68-25.433-12.716,0-4.578,2.035-7.015,5.6-10.378a6.778,6.778,0,0,1-4.476-6.71c0-2.24,1.118-4.273,2.952-6.208s3.864-3.865,6.306-6.1c-4.984-2.442-8.75-7.732-8.75-15.262,0-11.7,7.733-19.731,23.295-19.731a34.859,34.859,0,0,1,9.362,1.017h19.84v8.644l-9.361.713Zm27.259-18.487c-5.8,0-9.157-3.36-9.157-9.161s3.356-8.95,9.157-8.95c5.9,0,9.258,3.157,9.258,8.95S205.067,19.034,199.166,19.034ZM186.04,80.171V72.138l5.19-.71c1.425-.205,1.627-.509,1.627-2.038V39.48c0-1.116-.3-1.832-1.325-2.134l-5.492-1.935,1.118-8.238h21.061V69.39c0,1.63.1,1.833,1.629,2.039l5.188.71v8.032Zm69.227-3.944a40.682,40.682,0,0,1-16.586,4.068c-12.106,0-16.682-4.878-16.682-16.38V37.264c0-.61,0-1.017-.817-1.017h-7.12V27.19c8.955-1.02,12.513-5.5,13.632-16.585h9.666v14.45c0,.71,0,1.017.815,1.017h14.343V36.245H237.36V60.558c0,6,1.426,8.34,6.917,8.34a24.211,24.211,0,0,0,8.24-1.626l2.75,8.954" fill="#2f2707"/>
    <path id="Path_24" data-name="Path 24" d="M104.529,49.53,58.013,3.017a6.86,6.86,0,0,0-9.7,0l-9.659,9.66L50.9,24.929A8.148,8.148,0,0,1,61.223,35.316L73.03,47.125a8.158,8.158,0,1,1-4.889,4.6L57.129,40.716V69.7a8.248,8.248,0,0,1,2.159,1.544,8.164,8.164,0,1,1-8.873-1.781V40.209a8.064,8.064,0,0,1-2.672-1.782A8.162,8.162,0,0,1,45.983,29.5L33.905,17.422,2.011,49.314a6.863,6.863,0,0,0,0,9.706l46.516,46.514a6.862,6.862,0,0,0,9.7,0l46.3-46.3a6.866,6.866,0,0,0,0-9.707" fill="#de4c36"/>
  </g>
</svg>
