<svg xmlns="http://www.w3.org/2000/svg" width="255.11" height="360.088" viewBox="0 0 255.11 360.088">
  <g id="html5" transform="translate(-0.445)">
    <path id="Path_21" data-name="Path 21" d="M255.555,70.766l-23.241,260.36-104.47,28.962L23.662,331.166.445,70.766h255.11Z" fill="#e44d26"/>
    <path id="Path_22" data-name="Path 22" d="M128,337.95l84.417-23.4,19.86-222.49H128Z" fill="#f16529"/>
    <path id="Path_23" data-name="Path 23" d="M82.82,155.932H128V124H47.917l.764,8.568,7.85,88.01H128V188.636H85.739Zm7.2,80.61H57.958l4.474,50.146,65.421,18.16.147-.04V271.58l-.14.037-35.568-9.6-2.274-25.471Z" fill="#ebebeb"/>
    <path id="Path_24" data-name="Path 24" d="M24.18,0H40.41V16.035H55.257V0H71.488V48.558H55.258V32.3H40.411v16.26H24.181V0ZM92.83,16.1H78.544V0h44.814V16.1H109.063V48.558H92.833V16.1h0ZM130.47,0h16.923L157.8,17.062,168.2,0h16.93V48.558H168.969V24.49L157.8,41.755h-.28L146.35,24.49V48.558H130.47Zm62.74,0h16.235V32.508h22.824v16.05h-39.06V0Z"/>
    <path id="Path_25" data-name="Path 25" d="M127.89,220.573h39.327l-3.708,41.42-35.62,9.614v33.226l65.473-18.145.48-5.4,7.506-84.08.779-8.576H127.89v31.937Zm0-64.719v.078h77.143l.64-7.178,1.456-16.191.763-8.568h-80v31.86Z" fill="#fff"/>
  </g>
</svg>
