<svg id="javascript-logo" xmlns="http://www.w3.org/2000/svg" width="256" height="256" viewBox="0 0 256 256">
  <path id="Path_21" data-name="Path 21" d="M0,0H256V256H0Z" fill="#f7df1e"/>
  <path id="Path_22" data-name="Path 22" d="M67.312,213.932,86.9,202.076c3.78,6.7,7.218,12.371,15.465,12.371,7.9,0,12.89-3.092,12.89-15.12v-81.8h24.057v82.138c0,24.917-14.606,36.259-35.916,36.259-19.245,0-30.416-9.967-36.087-22m85.07-2.576,19.588-11.341c5.157,8.421,11.859,14.607,23.715,14.607,9.969,0,16.325-4.984,16.325-11.858,0-8.248-6.53-11.17-17.528-15.98l-6.013-2.58c-17.357-7.387-28.87-16.667-28.87-36.257,0-18.044,13.747-31.792,35.228-31.792,15.294,0,26.292,5.328,34.2,19.247L210.29,147.43c-4.125-7.389-8.591-10.31-15.465-10.31-7.046,0-11.514,4.468-11.514,10.31,0,7.217,4.468,10.14,14.778,14.608l6.014,2.577c20.45,8.765,31.963,17.7,31.963,37.8,0,21.654-17.012,33.51-39.867,33.51-22.339,0-36.774-10.654-43.819-24.574"/>
</svg>
