<svg xmlns="http://www.w3.org/2000/svg" xmlns:xlink="http://www.w3.org/1999/xlink" width="943.896" height="727.911" viewBox="0 0 943.896 727.911">
  <defs>
    <linearGradient id="linear-gradient" x1="0.878" x2="0.174" y2="1" gradientUnits="objectBoundingBox">
      <stop offset="0" stop-color="#f3f3f3"/>
      <stop offset="1" stop-color="#e4ebef"/>
    </linearGradient>
    <clipPath id="clip-path">
      <rect id="Rectangle_66" data-name="Rectangle 66" width="890.512" height="572.488" transform="translate(1152 1803)" fill="#60ffb5" stroke="#707070" stroke-width="1"/>
    </clipPath>
    <linearGradient id="linear-gradient-2" x1="0.459" y1="0.999" x2="0.459" y2="-0.006" gradientUnits="objectBoundingBox">
      <stop offset="0" stop-color="gray" stop-opacity="0.251"/>
      <stop offset="0.54" stop-color="gray" stop-opacity="0.122"/>
      <stop offset="1" stop-color="gray" stop-opacity="0.102"/>
    </linearGradient>
  </defs>
  <g id="qa" transform="translate(-1051.616 -1676.557)">
    <path id="Path_160" data-name="Path 160" d="M-147.252-391.816c211.15-74.457,505.9-101.574,696.641,0s196.386,241.17,66.3,406.3S240.2,280.985,29.051,268.691-143.334,57.126-66.442-93.987-358.4-317.359-147.252-391.816Z" transform="translate(1265 2134.772)" fill="url(#linear-gradient)"/>
    <g id="Mask_Group_4" data-name="Mask Group 4" transform="translate(-47 -49)" clip-path="url(#clip-path)">
      <g id="qa-blue" transform="translate(1224.721 1803)">
        <ellipse id="Ellipse_13" data-name="Ellipse 13" cx="309.626" cy="24.042" rx="309.626" ry="24.042" transform="translate(31.786 457.431)" fill="#027bff" opacity="0.1"/>
        <g id="Group_17" data-name="Group 17" opacity="0.1">
          <path id="Path_53" data-name="Path 53" d="M680.23,386.071c-1.85-5.617-9.354-8.2-16.756-5.77a18.046,18.046,0,0,0-3.082,1.333c-.474-.131-.962-.248-1.457-.335a16.338,16.338,0,0,0,.459-4.947,17.922,17.922,0,0,0,7.941-15.642,17.944,17.944,0,0,0,7.912-15.642,17.31,17.31,0,0,0,6-6.79c3.57-7.067,2.091-15.008-3.307-17.74s-12.676.787-16.246,7.854a17.259,17.259,0,0,0-1.916,8.852,17.944,17.944,0,0,0-7.912,15.642,17.944,17.944,0,0,0-7.912,15.642,17.951,17.951,0,0,0-7.941,15.649,17.31,17.31,0,0,0-6,6.79,18.548,18.548,0,0,0-1.515,4.182,15.429,15.429,0,0,0-3.235-3.446,18.488,18.488,0,0,0-.729-3.278c-2.433-7.409-8.961-11.926-14.571-10.076s-8.2,9.347-5.77,16.756a16.806,16.806,0,0,0,5.508,8.072,18.489,18.489,0,0,0,.729,3.278,16.029,16.029,0,0,0,7.395,9.289,16.932,16.932,0,0,0-.6,2.841,18.424,18.424,0,0,0-5.493,10.862,18.41,18.41,0,0,0-5.493,10.87,17.946,17.946,0,0,0-3.643,4.961c-3.577,7.067-2.1,15.015,3.3,17.74s12.676-.78,16.254-7.854a17.936,17.936,0,0,0,1.821-5.894,18.424,18.424,0,0,0,5.493-10.862,18.41,18.41,0,0,0,5.493-10.87,18.367,18.367,0,0,0,5.427-10.862,18.366,18.366,0,0,0,5.508-10.884,17.565,17.565,0,0,0,2.47-2.914,17.091,17.091,0,0,0,8.939-.561,18.037,18.037,0,0,0,3.082-1.333,16.9,16.9,0,0,0,9.777-.35C677.535,398.223,682.073,391.7,680.23,386.071Z" transform="translate(-64.584 -41.592)" fill="#3f3d56"/>
          <g id="Group_15" data-name="Group 15" opacity="0.1">
            <path id="Path_54" data-name="Path 54" d="M667.168,363.923a15.663,15.663,0,0,1-2.506,2,16.755,16.755,0,0,1-.809,6.142,19.068,19.068,0,0,0,1.53-2.5,17.951,17.951,0,0,0,1.785-5.646Z" transform="translate(-64.584 -41.592)"/>
            <path id="Path_55" data-name="Path 55" d="M675.079,348.282a15.664,15.664,0,0,1-2.506,2,16.754,16.754,0,0,1-.809,6.142,18.686,18.686,0,0,0,1.53-2.506A18.107,18.107,0,0,0,675.079,348.282Z" transform="translate(-64.584 -41.592)"/>
            <path id="Path_56" data-name="Path 56" d="M657.136,342.461a15.963,15.963,0,0,1,.124-3.213,18.161,18.161,0,0,0-3.482,4.786,18.677,18.677,0,0,0-1.107,2.717A16.573,16.573,0,0,1,657.136,342.461Z" transform="translate(-64.584 -41.592)"/>
            <path id="Path_57" data-name="Path 57" d="M606.918,437.119a17.187,17.187,0,0,1,2.149-2.462,16.7,16.7,0,0,1,.634-2.914,18.275,18.275,0,0,0-1.668,2.7,18.661,18.661,0,0,0-1.115,2.674Z" transform="translate(-64.584 -41.592)"/>
            <path id="Path_58" data-name="Path 58" d="M612.411,426.264a17.189,17.189,0,0,1,2.149-2.462,16.744,16.744,0,0,1,.6-2.841h0a18.7,18.7,0,0,0-1.6,2.615,19.488,19.488,0,0,0-1.151,2.688Z" transform="translate(-64.584 -41.592)"/>
            <path id="Path_59" data-name="Path 59" d="M659.248,379.565a15.17,15.17,0,0,1-2.5,2,16.357,16.357,0,0,1-.459,4.947,13.661,13.661,0,0,1,1.457.335,18.041,18.041,0,0,1,3.082-1.333c7.416-2.433,14.913.153,16.756,5.77a8.51,8.51,0,0,1,.233,4.371c2.441-2.87,3.453-6.367,2.4-9.573-1.85-5.617-9.354-8.2-16.756-5.77a18.039,18.039,0,0,0-3.082,1.333c-.474-.131-.962-.248-1.457-.335C659.066,380.723,659.168,380.148,659.248,379.565Z" transform="translate(-64.584 -41.592)"/>
            <path id="Path_60" data-name="Path 60" d="M604.208,442.576a18.274,18.274,0,0,0-1.668,2.7A19.344,19.344,0,0,0,601.418,448a17.839,17.839,0,0,1,2.186-2.477A16.7,16.7,0,0,1,604.208,442.576Z" transform="translate(-64.584 -41.592)"/>
            <path id="Path_61" data-name="Path 61" d="M649.187,358.1a16.031,16.031,0,0,1,.124-3.213,18.162,18.162,0,0,0-3.482,4.786,18.678,18.678,0,0,0-1.107,2.717,16.576,16.576,0,0,1,4.466-4.291Z" transform="translate(-64.584 -41.592)"/>
            <path id="Path_62" data-name="Path 62" d="M637.757,421.893a17.7,17.7,0,0,1-.729,3.191,19.436,19.436,0,0,0,1.523-2.506,18.567,18.567,0,0,0,1.188-2.914A17.648,17.648,0,0,1,637.757,421.893Z" transform="translate(-64.584 -41.592)"/>
            <path id="Path_63" data-name="Path 63" d="M626.77,443.618a17.6,17.6,0,0,1-.729,3.191,18.694,18.694,0,0,0,1.53-2.506,19.285,19.285,0,0,0,1.187-2.914,17.178,17.178,0,0,1-1.989,2.229Z" transform="translate(-64.584 -41.592)"/>
            <path id="Path_64" data-name="Path 64" d="M632.264,432.748a17.556,17.556,0,0,1-.729,3.191,19.424,19.424,0,0,0,1.559-2.462,18.575,18.575,0,0,0,1.188-2.914A17.654,17.654,0,0,1,632.264,432.748Z" transform="translate(-64.584 -41.592)"/>
            <path id="Path_65" data-name="Path 65" d="M643.25,411.03a17.484,17.484,0,0,1-.729,3.184,18.849,18.849,0,0,0,1.523-2.5,18.564,18.564,0,0,0,1.195-2.965A16.918,16.918,0,0,1,643.25,411.03Z" transform="translate(-64.584 -41.592)"/>
            <path id="Path_66" data-name="Path 66" d="M607.282,383.557c5.624-1.843,12.152,2.666,14.571,10.076a18.712,18.712,0,0,1,.729,3.286,15.431,15.431,0,0,1,3.235,3.446,18.6,18.6,0,0,1,1.515-4.189c.255-.5.532-.969.816-1.457a15.349,15.349,0,0,0-2.914-3.045,18.489,18.489,0,0,0-.729-3.278c-2.433-7.409-8.961-11.926-14.571-10.076-3.206,1.049-5.42,3.941-6.28,7.6a8.516,8.516,0,0,1,3.628-2.361Z" transform="translate(-64.584 -41.592)"/>
            <path id="Path_67" data-name="Path 67" d="M633.364,389.386a15.915,15.915,0,0,1,.131-3.206,18.019,18.019,0,0,0-3.49,4.786,18.272,18.272,0,0,0-1.107,2.71A16.756,16.756,0,0,1,633.364,389.386Z" transform="translate(-64.584 -41.592)"/>
            <path id="Path_68" data-name="Path 68" d="M641.276,373.737a15.92,15.92,0,0,1,.131-3.206,17.86,17.86,0,0,0-3.49,4.779,18.67,18.67,0,0,0-1.107,2.717,16.573,16.573,0,0,1,4.466-4.291Z" transform="translate(-64.584 -41.592)"/>
            <path id="Path_69" data-name="Path 69" d="M621.277,454.48a17.667,17.667,0,0,1-.729,3.2,18.748,18.748,0,0,0,2.717-5.457,17.176,17.176,0,0,1-1.989,2.258Z" transform="translate(-64.584 -41.592)"/>
          </g>
          <path id="Path_70" data-name="Path 70" d="M691.027,313.786a17.251,17.251,0,0,0,6-6.79c3.577-7.067,2.1-15.015-3.3-17.747s-12.677.787-16.254,7.861a17.251,17.251,0,0,0-1.909,8.874,17.944,17.944,0,0,0-7.912,15.642,17.2,17.2,0,0,0-6,6.79,17.987,17.987,0,0,0-1.1,2.688,15.19,15.19,0,0,1,7.846-5.828,8.917,8.917,0,0,0,11.321,5.712,15.19,15.19,0,0,1,0,9.77,18.559,18.559,0,0,0,1.515-2.477,17.252,17.252,0,0,0,1.909-8.852,17.9,17.9,0,0,0,7.912-15.642Z" transform="translate(-64.584 -41.592)" fill="#3f3d56"/>
          <path id="Path_71" data-name="Path 71" d="M777.984,213.511a52.45,52.45,0,0,0,6.353-3.519l-23.553-17.208,27.684,14.257a52.549,52.549,0,0,0,19.67-36.652l-47.049.481,47.151-7.883A52.454,52.454,0,1,0,704.366,176.3a52.518,52.518,0,0,0-9.66,5.828l24.588,34.19-29.52-29.928a52.512,52.512,0,0,0-14.694,47.8A52.454,52.454,0,1,0,748.7,271.422a52.454,52.454,0,0,0,29.287-57.911Z" transform="translate(-64.584 -41.592)" fill="#027bff"/>
          <path id="Path_72" data-name="Path 72" d="M679.72,200.164a52.286,52.286,0,0,0-4.626,34.03,52.454,52.454,0,1,0,73.618,37.228C759.006,266.643,682.357,194.911,679.72,200.164Z" transform="translate(-64.584 -41.592)" opacity="0.1"/>
          <circle id="Ellipse_14" data-name="Ellipse 14" cx="7.788" cy="7.788" r="7.788" transform="translate(666.461 67.047)" fill="#027bff"/>
          <circle id="Ellipse_15" data-name="Ellipse 15" cx="7.788" cy="7.788" r="7.788" transform="translate(711.95 72.045)" fill="#027bff"/>
          <circle id="Ellipse_16" data-name="Ellipse 16" cx="7.788" cy="7.788" r="7.788" transform="translate(729.493 142.027)" fill="#027bff"/>
          <circle id="Ellipse_17" data-name="Ellipse 17" cx="7.788" cy="7.788" r="7.788" transform="translate(705.816 176.975)" fill="#027bff"/>
          <circle id="Ellipse_18" data-name="Ellipse 18" cx="7.788" cy="7.788" r="7.788" transform="translate(673.469 249.559)" fill="#027bff"/>
          <circle id="Ellipse_19" data-name="Ellipse 19" cx="7.788" cy="7.788" r="7.788" transform="translate(673.469 249.559)" opacity="0.1"/>
          <circle id="Ellipse_20" data-name="Ellipse 20" cx="7.788" cy="7.788" r="7.788" transform="translate(601.549 167.351)" fill="#027bff"/>
          <circle id="Ellipse_21" data-name="Ellipse 21" cx="7.788" cy="7.788" r="7.788" transform="translate(601.549 167.351)" opacity="0.1"/>
          <path id="Path_73" data-name="Path 73" d="M665.616,344.829c-5.18-2.615-6.746-10.025-3.723-16.858-.16.277-.313.561-.459.86-3.577,7.067-2.1,15.008,3.3,17.74s12.676-.787,16.246-7.854c.153-.291.284-.59.415-.882C677.688,344.326,670.788,347.451,665.616,344.829Z" transform="translate(-64.584 -41.592)" opacity="0.1"/>
          <path id="Path_74" data-name="Path 74" d="M657.922,360.04c-5.173-2.615-6.746-10.025-3.716-16.866-.16.284-.321.568-.466.86-3.577,7.067-2.1,15.015,3.3,17.74s12.676-.78,16.254-7.854c.146-.291.284-.583.415-.882C669.994,359.53,663.1,362.656,657.922,360.04Z" transform="translate(-64.584 -41.592)" opacity="0.1"/>
          <path id="Path_75" data-name="Path 75" d="M650.229,375.245c-5.173-2.615-6.746-10.025-3.716-16.858-.16.277-.32.561-.466.86-3.577,7.067-2.091,15.008,3.307,17.74s12.669-.787,16.246-7.854c.146-.291.284-.59.415-.882C662.308,374.742,655.409,377.868,650.229,375.245Z" transform="translate(-64.584 -41.592)" opacity="0.1"/>
          <path id="Path_76" data-name="Path 76" d="M642.565,390.493c-5.18-2.615-6.746-10.025-3.723-16.858-.16.277-.313.561-.466.852-3.57,7.067-2.091,15.015,3.307,17.747s12.677-.787,16.246-7.861c.153-.291.284-.583.415-.882C654.615,389.947,647.716,393.072,642.565,390.493Z" transform="translate(-64.584 -41.592)" opacity="0.1"/>
          <path id="Path_77" data-name="Path 77" d="M634.85,405.661c-5.18-2.615-6.746-10.025-3.723-16.858-.16.277-.313.561-.459.86-3.577,7.067-2.1,15.008,3.3,17.74s12.676-.787,16.254-7.854c.146-.291.284-.59.415-.882C646.936,405.158,640.022,408.284,634.85,405.661Z" transform="translate(-64.584 -41.592)" opacity="0.1"/>
          <path id="Path_78" data-name="Path 78" d="M627.157,420.873c-5.173-2.615-6.746-10.025-3.716-16.858-.16.277-.321.561-.466.852-3.577,7.067-2.1,15.015,3.307,17.747s12.64-.794,16.283-7.861c.146-.291.284-.583.415-.882C639.228,420.363,632.366,423.488,627.157,420.873Z" transform="translate(-64.584 -41.592)" opacity="0.1"/>
          <path id="Path_79" data-name="Path 79" d="M619.463,436.077c-5.173-2.615-6.746-10.025-3.715-16.858-.16.284-.313.561-.466.86-3.57,7.067-2.091,15.008,3.308,17.74s12.676-.787,16.246-7.854c.153-.291.284-.59.415-.882C631.542,435.575,624.643,438.7,619.463,436.077Z" transform="translate(-64.584 -41.592)" opacity="0.1"/>
          <path id="Path_80" data-name="Path 80" d="M611.777,451.289c-5.18-2.615-6.746-10.025-3.723-16.858q-.241.415-.459.852c-3.577,7.067-2.1,15.015,3.3,17.747s12.677-.787,16.254-7.861c.146-.291.277-.583.408-.882C623.849,450.779,616.95,453.875,611.777,451.289Z" transform="translate(-64.584 -41.592)" opacity="0.1"/>
          <path id="Path_81" data-name="Path 81" d="M606.721,461.284c-5.173-2.623-6.746-10.025-3.716-16.866-.16.284-.321.568-.466.86-3.577,7.067-2.1,15.015,3.3,17.74s12.676-.78,16.254-7.854c.146-.291.284-.583.415-.882C618.793,460.774,611.894,463.9,606.721,461.284Z" transform="translate(-64.584 -41.592)" opacity="0.1"/>
          <path id="Path_82" data-name="Path 82" d="M745.718,393.6a27.247,27.247,0,0,0,1.457-7.132,3.89,3.89,0,1,0-.59-7.737,27.182,27.182,0,0,0-14.308-18.439,3.893,3.893,0,1,0-6.95-3.512,3.641,3.641,0,0,0-.35,1.042,27.313,27.313,0,0,0-23.947,7.176,27.424,27.424,0,0,0-7.154-.211l-3.155,14.359-.189-13.842A27.262,27.262,0,1,0,705.1,417.755a3.847,3.847,0,0,0,1.639,1.574,3.89,3.89,0,0,0,5.333-5.012,27.21,27.21,0,0,0,3.5-2.856,27.283,27.283,0,0,0,28.639-14.447l-14.68-2.47Z" transform="translate(-64.584 -41.592)" fill="#027bff"/>
          <g id="Group_16" data-name="Group 16" opacity="0.1">
            <path id="Path_83" data-name="Path 83" d="M723.039,400.569c-5.42-7.154-8.742-15.627-12.567-23.757a99.357,99.357,0,0,0-5.151-9.733l-2.87-3.344c-.481.408-.962.831-1.457,1.275a27.42,27.42,0,0,0-7.154-.211l-3.154,14.359-.189-13.842a27.262,27.262,0,1,0,14.571,52.454,3.847,3.847,0,0,0,1.639,1.574,3.89,3.89,0,0,0,5.333-5.012,27.217,27.217,0,0,0,3.5-2.856,27.313,27.313,0,0,0,16.348-2.419A38.4,38.4,0,0,1,723.039,400.569Z" transform="translate(-64.584 -41.592)"/>
          </g>
          <path id="Path_84" data-name="Path 84" d="M627.055,369.825a3.89,3.89,0,0,0-3.482-5.646A27.226,27.226,0,0,0,615.048,349a27.332,27.332,0,0,0,.8-8.524l-14.316-2.441,13.9-.874a27.688,27.688,0,0,0-1.027-3.847,3.977,3.977,0,0,0,1.282-1.457,3.9,3.9,0,0,0-4.8-5.42,27.262,27.262,0,0,0-48.659,22.526,3.825,3.825,0,0,0-1.938,1.821,3.89,3.89,0,0,0,4.918,5.369,27.341,27.341,0,0,0,5.165,6.3,27.247,27.247,0,0,0,1.268,17.31l19.2-4.983-17.121,9a27.262,27.262,0,0,0,50.2-11.846,3.883,3.883,0,0,0,3.133-2.12Z" transform="translate(-64.584 -41.592)" fill="#027bff"/>
          <path id="Path_85" data-name="Path 85" d="M627.055,369.825a3.89,3.89,0,0,0-3.482-5.646A27.226,27.226,0,0,0,615.048,349c.117-.459.219-.911.306-1.37a9.6,9.6,0,0,0-1.406,1.246c-2.586,2.834-3.912,6.644-6.469,9.507-3.016,3.38-7.533,5.143-12.043,5.617a45.849,45.849,0,0,1-13.5-1.086c-3.686-.729-7.424-1.574-11.161-1.217a6.241,6.241,0,0,0-1.064.138c.219.211.437.423.663.627a27.248,27.248,0,0,0,1.268,17.31l19.2-4.99-17.121,9a27.262,27.262,0,0,0,50.2-11.846,3.883,3.883,0,0,0,3.133-2.12Z" transform="translate(-64.584 -41.592)" opacity="0.1"/>
        </g>
        <g id="Group_20" data-name="Group 20" opacity="0.1">
          <path id="Path_86" data-name="Path 86" d="M129.781,414.046c.933-2.834,4.714-4.138,8.444-2.914a9.307,9.307,0,0,1,1.552.67c.24-.066.488-.124.729-.168a8.2,8.2,0,0,1-.233-2.492,9.078,9.078,0,0,1-3.985-7.883,9.053,9.053,0,0,1-3.985-7.875,8.742,8.742,0,0,1-3.016-3.424c-1.792-3.555-1.064-7.555,1.668-8.939s6.389.4,8.189,3.956a8.743,8.743,0,0,1,.962,4.466,9.012,9.012,0,0,1,3.985,7.875,9.034,9.034,0,0,1,3.985,7.883,9.012,9.012,0,0,1,3.985,7.875,8.742,8.742,0,0,1,3.023,3.424,9.225,9.225,0,0,1,.729,2.113,7.766,7.766,0,0,1,1.625-1.741,9.163,9.163,0,0,1,.379-1.654c1.231-3.73,4.517-6,7.351-5.1s4.131,4.714,2.914,8.444a8.5,8.5,0,0,1-2.776,4.073,9.231,9.231,0,0,1-.379,1.647,8.087,8.087,0,0,1-3.723,4.677,9.353,9.353,0,0,1,.306,1.457,9.158,9.158,0,0,1,1.843,2.5,8.975,8.975,0,0,1,.918,2.972,9.144,9.144,0,0,1,1.85,2.5,9.027,9.027,0,0,1,.918,2.972,9.071,9.071,0,0,1,1.85,2.506c1.8,3.555,1.056,7.562-1.661,8.932s-6.389-.393-8.189-3.956a9.092,9.092,0,0,1-.918-2.972,9.252,9.252,0,0,1-2.768-5.471,9.252,9.252,0,0,1-2.768-5.471,9.179,9.179,0,0,1-1.85-2.5,9.273,9.273,0,0,1-.918-2.972,9.157,9.157,0,0,1-1.843-2.5,8.976,8.976,0,0,1-.918-2.972,8.475,8.475,0,0,1-1.246-1.457,8.67,8.67,0,0,1-4.5-.277,9.684,9.684,0,0,1-1.559-.678,8.458,8.458,0,0,1-4.918-.175C131.136,420.166,128.855,416.88,129.781,414.046Z" transform="translate(-64.584 -41.592)" fill="#3f3d56"/>
          <g id="Group_18" data-name="Group 18" opacity="0.1">
            <path id="Path_87" data-name="Path 87" d="M136.359,402.878a7.811,7.811,0,0,0,1.268,1.013,8.24,8.24,0,0,0,.408,3.089,8.7,8.7,0,0,1-.772-1.26,9.077,9.077,0,0,1-.9-2.841Z" transform="translate(-64.584 -41.592)"/>
            <path id="Path_88" data-name="Path 88" d="M132.374,395.01a8.166,8.166,0,0,0,1.268,1.005,8.3,8.3,0,0,0,.408,3.1A9.253,9.253,0,0,1,132.374,395.01Z" transform="translate(-64.584 -41.592)"/>
            <path id="Path_89" data-name="Path 89" d="M141.43,392.074a8.092,8.092,0,0,0-.058-1.617,9.225,9.225,0,0,1,1.756,2.411,9.471,9.471,0,0,1,.554,1.37,8.32,8.32,0,0,0-2.251-2.164Z" transform="translate(-64.584 -41.592)"/>
            <path id="Path_90" data-name="Path 90" d="M166.71,439.764a8.486,8.486,0,0,0-1.078-1.239,9.031,9.031,0,0,0-.321-1.457,9.636,9.636,0,0,1,.838,1.355,9.47,9.47,0,0,1,.561,1.341Z" transform="translate(-64.584 -41.592)"/>
            <path id="Path_91" data-name="Path 91" d="M163.92,434.292a8.489,8.489,0,0,0-1.078-1.239,8.559,8.559,0,0,0-.306-1.457h0a9.231,9.231,0,0,1,1.37,2.681Z" transform="translate(-64.584 -41.592)"/>
            <path id="Path_92" data-name="Path 92" d="M140.352,410.775a7.371,7.371,0,0,0,1.26,1,7.94,7.94,0,0,0,.233,2.492,7.3,7.3,0,0,0-.729.168,9.658,9.658,0,0,0-1.559-.67c-3.73-1.224-7.511.08-8.436,2.914a4.24,4.24,0,0,0-.124,2.186,5.049,5.049,0,0,1-1.209-4.816c.933-2.834,4.714-4.138,8.444-2.914a9.307,9.307,0,0,1,1.552.67c.24-.066.488-.124.729-.168a7.523,7.523,0,0,1-.16-.86Z" transform="translate(-64.584 -41.592)"/>
            <path id="Path_93" data-name="Path 93" d="M168.08,442.51a9.319,9.319,0,0,1,.838,1.362,9.472,9.472,0,0,1,.561,1.37A8.55,8.55,0,0,0,168.4,444,9.032,9.032,0,0,0,168.08,442.51Z" transform="translate(-64.584 -41.592)"/>
            <path id="Path_94" data-name="Path 94" d="M145.415,399.964a8.074,8.074,0,0,0-.058-1.617,9.1,9.1,0,0,1,1.756,2.411,9.378,9.378,0,0,1,.554,1.362A8.291,8.291,0,0,0,145.415,399.964Z" transform="translate(-64.584 -41.592)"/>
            <path id="Path_95" data-name="Path 95" d="M151.178,432.092a8.7,8.7,0,0,0,.357,1.6,9.2,9.2,0,0,1-1.37-2.747,8.534,8.534,0,0,0,1.013,1.144Z" transform="translate(-64.584 -41.592)"/>
            <path id="Path_96" data-name="Path 96" d="M156.707,443.035a9.224,9.224,0,0,0,.364,1.6,8.69,8.69,0,0,1-.772-1.26,9.384,9.384,0,0,1-.6-1.457A9.474,9.474,0,0,0,156.707,443.035Z" transform="translate(-64.584 -41.592)"/>
            <path id="Path_97" data-name="Path 97" d="M153.946,437.563a8.7,8.7,0,0,0,.357,1.6,9.379,9.379,0,0,1-.772-1.26,9.175,9.175,0,0,1-.6-1.457,8.538,8.538,0,0,0,1.013,1.115Z" transform="translate(-64.584 -41.592)"/>
            <path id="Path_98" data-name="Path 98" d="M148.409,426.614a8.64,8.64,0,0,0,.357,1.61,9.065,9.065,0,0,1-.729-1.26,8.908,8.908,0,0,1-.6-1.457A8.109,8.109,0,0,0,148.409,426.614Z" transform="translate(-64.584 -41.592)"/>
            <path id="Path_99" data-name="Path 99" d="M166.528,412.779c-2.834-.933-6.12,1.341-7.344,5.1a9.167,9.167,0,0,0-.379,1.654,7.745,7.745,0,0,0-1.632,1.734,9.346,9.346,0,0,0-.765-2.113c-.124-.248-.262-.488-.408-.729a7.745,7.745,0,0,1,1.457-1.53,9.163,9.163,0,0,1,.379-1.654c1.231-3.73,4.517-6,7.351-5.1a5.049,5.049,0,0,1,3.162,3.832A4.32,4.32,0,0,0,166.528,412.779Z" transform="translate(-64.584 -41.592)"/>
            <path id="Path_100" data-name="Path 100" d="M153.385,415.715a8.092,8.092,0,0,0-.058-1.617,9.1,9.1,0,0,1,1.756,2.411,9.471,9.471,0,0,1,.554,1.37,8.217,8.217,0,0,0-2.251-2.164Z" transform="translate(-64.584 -41.592)"/>
            <path id="Path_101" data-name="Path 101" d="M149.4,407.832a8.109,8.109,0,0,0-.058-1.617,9.349,9.349,0,0,1,1.756,2.411,9.47,9.47,0,0,1,.554,1.37A8.32,8.32,0,0,0,149.4,407.832Z" transform="translate(-64.584 -41.592)"/>
            <path id="Path_102" data-name="Path 102" d="M159.476,448.506a8.668,8.668,0,0,0,.364,1.61,9.187,9.187,0,0,1-.772-1.268,9.38,9.38,0,0,1-.6-1.457A9.467,9.467,0,0,0,159.476,448.506Z" transform="translate(-64.584 -41.592)"/>
          </g>
          <path id="Path_103" data-name="Path 103" d="M124.339,377.627a8.684,8.684,0,0,1-3.016-3.417c-1.8-3.562-1.056-7.562,1.661-8.939s6.389.393,8.189,3.956a8.692,8.692,0,0,1,.962,4.459,9.034,9.034,0,0,1,3.985,7.883,8.742,8.742,0,0,1,3.023,3.417,9.637,9.637,0,0,1,.554,1.355,7.7,7.7,0,0,0-3.956-2.914,4.488,4.488,0,0,1-5.7,2.914,7.664,7.664,0,0,0,0,4.918,9.606,9.606,0,0,1-.729-1.246,8.742,8.742,0,0,1-.969-4.459,9.056,9.056,0,0,1-3.985-7.883Z" transform="translate(-64.584 -41.592)" fill="#3f3d56"/>
          <path id="Path_104" data-name="Path 104" d="M80.539,327.111a26.824,26.824,0,0,1-3.2-1.77l11.86-8.67-13.944,7.176a26.475,26.475,0,0,1-9.9-18.461l23.706.248-23.757-3.978a26.438,26.438,0,1,1,52.316,6.7,26.757,26.757,0,0,1,4.867,2.914L110.1,328.495l14.869-15.066a26.46,26.46,0,0,1,7.4,24.078,26.438,26.438,0,1,1-37.082,18.752,26.431,26.431,0,0,1-14.753-29.141Z" transform="translate(-64.584 -41.592)" fill="#027bff"/>
          <path id="Path_105" data-name="Path 105" d="M130.043,320.394a26.315,26.315,0,0,1,2.331,17.142,26.438,26.438,0,1,1-37.082,18.752C90.1,353.877,128.71,317.749,130.043,320.394Z" transform="translate(-64.584 -41.592)" opacity="0.1"/>
          <circle id="Ellipse_22" data-name="Ellipse 22" cx="3.927" cy="3.927" r="3.927" transform="translate(31.749 232.686)" fill="#027bff"/>
          <circle id="Ellipse_23" data-name="Ellipse 23" cx="3.927" cy="3.927" r="3.927" transform="translate(8.83 235.206)" fill="#027bff"/>
          <circle id="Ellipse_24" data-name="Ellipse 24" cx="3.927" cy="3.927" r="3.927" transform="translate(0 270.46)" fill="#027bff"/>
          <circle id="Ellipse_25" data-name="Ellipse 25" cx="3.927" cy="3.927" r="3.927" transform="translate(11.926 288.069)" fill="#027bff"/>
          <circle id="Ellipse_26" data-name="Ellipse 26" cx="3.927" cy="3.927" r="3.927" transform="translate(28.216 324.634)" fill="#027bff"/>
          <circle id="Ellipse_27" data-name="Ellipse 27" cx="3.927" cy="3.927" r="3.927" transform="translate(28.216 324.634)" opacity="0.1"/>
          <circle id="Ellipse_28" data-name="Ellipse 28" cx="3.927" cy="3.927" r="3.927" transform="translate(64.446 283.217)" fill="#027bff"/>
          <circle id="Ellipse_29" data-name="Ellipse 29" cx="3.927" cy="3.927" r="3.927" transform="translate(64.446 283.217)" opacity="0.1"/>
          <path id="Path_106" data-name="Path 106" d="M137.146,393.269c2.608-1.319,3.395-5.049,1.872-8.495.08.146.16.284.233.43,1.8,3.563,1.056,7.562-1.668,8.939s-6.382-.393-8.181-3.956c-.073-.146-.146-.291-.211-.444C131.063,393.014,134.538,394.587,137.146,393.269Z" transform="translate(-64.584 -41.592)" opacity="0.1"/>
          <path id="Path_107" data-name="Path 107" d="M141.015,400.933c2.608-1.319,3.4-5.056,1.88-8.495.08.138.16.284.233.43,1.8,3.563,1.056,7.562-1.668,8.939s-6.382-.393-8.181-3.956c-.08-.146-.146-.3-.211-.444C134.939,400.692,138.421,402.252,141.015,400.933Z" transform="translate(-64.584 -41.592)" opacity="0.1"/>
          <path id="Path_108" data-name="Path 108" d="M144.89,408.59c2.608-1.319,3.4-5.049,1.872-8.495.087.146.16.284.24.437,1.8,3.555,1.049,7.562-1.668,8.932s-6.382-.393-8.181-3.956c-.08-.146-.146-.291-.211-.444C138.807,408.335,142.282,409.908,144.89,408.59Z" transform="translate(-64.584 -41.592)" opacity="0.1"/>
          <path id="Path_109" data-name="Path 109" d="M148.766,416.254c2.608-1.319,3.4-5.049,1.872-8.495.08.138.16.284.233.43,1.807,3.563,1.056,7.562-1.661,8.939s-6.389-.393-8.189-3.956c-.073-.146-.138-.3-.2-.444C142.683,415.992,146.158,417.573,148.766,416.254Z" transform="translate(-64.584 -41.592)" opacity="0.1"/>
          <path id="Path_110" data-name="Path 110" d="M152.642,423.911c2.608-1.319,3.395-5.049,1.872-8.487.08.138.16.284.233.43,1.8,3.563,1.056,7.562-1.661,8.939s-6.389-.4-8.189-3.956c-.073-.153-.138-.3-.211-.444C146.559,423.656,150.034,425.229,152.642,423.911Z" transform="translate(-64.584 -41.592)" opacity="0.1"/>
          <path id="Path_111" data-name="Path 111" d="M156.518,431.575c2.608-1.319,3.395-5.049,1.872-8.495.08.146.16.284.233.43,1.8,3.563,1.056,7.562-1.661,8.939s-6.389-.393-8.189-3.956c-.073-.146-.146-.291-.211-.444C150.435,431.291,153.91,432.894,156.518,431.575Z" transform="translate(-64.584 -41.592)" opacity="0.1"/>
          <path id="Path_112" data-name="Path 112" d="M160.394,439.239c2.6-1.319,3.395-5.056,1.872-8.495.08.138.16.284.233.43,1.8,3.563,1.056,7.562-1.668,8.939s-6.382-.4-8.181-3.956c-.073-.153-.146-.3-.211-.444C154.31,438.977,157.785,440.558,160.394,439.239Z" transform="translate(-64.584 -41.592)" opacity="0.1"/>
          <path id="Path_113" data-name="Path 113" d="M164.262,446.9c2.608-1.319,3.4-5.049,1.872-8.495.087.146.16.284.24.437,1.8,3.555,1.049,7.562-1.668,8.932s-6.382-.393-8.181-3.956c-.08-.146-.146-.291-.211-.444C158.186,446.641,161.654,448.215,164.262,446.9Z" transform="translate(-64.584 -41.592)" opacity="0.1"/>
          <path id="Path_114" data-name="Path 114" d="M166.834,451.93c2.608-1.319,3.395-5.049,1.872-8.495.08.146.16.284.233.437,1.8,3.555,1.056,7.562-1.661,8.932s-6.389-.393-8.189-3.956c-.073-.146-.146-.291-.211-.444C160.729,451.69,164.2,453.249,166.834,451.93Z" transform="translate(-64.584 -41.592)" opacity="0.1"/>
          <path id="Path_115" data-name="Path 115" d="M96.793,417.835a13.528,13.528,0,0,1-.729-3.592,1.96,1.96,0,1,1,.3-3.9,13.711,13.711,0,0,1,7.205-9.289,1.963,1.963,0,1,1,3.5-1.77,1.778,1.778,0,0,1,.175.524,13.784,13.784,0,0,1,12.065,3.643,13.609,13.609,0,0,1,3.643-.1l1.588,7.227.036-6.972a13.733,13.733,0,1,1-7.344,26.438,2.011,2.011,0,0,1-.823.794,1.967,1.967,0,0,1-2.7-2.528,13.725,13.725,0,0,1-1.756-1.457,13.747,13.747,0,0,1-14.425-7.285l7.395-1.246Z" transform="translate(-64.584 -41.592)" fill="#027bff"/>
          <g id="Group_19" data-name="Group 19" opacity="0.1">
            <path id="Path_116" data-name="Path 116" d="M108.216,421.346c2.732-3.643,4.408-7.868,6.331-11.962a48.594,48.594,0,0,1,2.594-4.91l1.457-1.683c.248.211.488.423.729.641a13.609,13.609,0,0,1,3.643-.1l1.588,7.227.022-6.95a13.733,13.733,0,1,1-7.344,26.438,2.011,2.011,0,0,1-.823.794,1.967,1.967,0,0,1-2.7-2.528,13.725,13.725,0,0,1-1.756-1.457,13.842,13.842,0,0,1-8.24-1.217,19.371,19.371,0,0,0,4.5-4.291Z" transform="translate(-64.584 -41.592)"/>
          </g>
          <path id="Path_117" data-name="Path 117" d="M156.569,405.858a1.952,1.952,0,0,1,.867-2.63,1.923,1.923,0,0,1,.889-.211,13.733,13.733,0,0,1,4.291-7.65,13.631,13.631,0,0,1-.4-4.291l7.205-1.209-7-.444a13.588,13.588,0,0,1,.525-1.938,1.923,1.923,0,0,1-.648-.728,1.967,1.967,0,0,1,2.419-2.732,13.572,13.572,0,0,1,5-4.32,13.726,13.726,0,0,1,19.5,15.663,1.96,1.96,0,0,1-1.5,3.621,13.653,13.653,0,0,1-2.6,3.162,13.769,13.769,0,0,1-.634,8.742l-9.638-2.535,8.619,4.539a13.74,13.74,0,0,1-23.918-1.122,13.922,13.922,0,0,1-1.413-4.845A1.945,1.945,0,0,1,156.569,405.858Z" transform="translate(-64.584 -41.592)" fill="#027bff"/>
          <path id="Path_118" data-name="Path 118" d="M156.569,405.858a1.952,1.952,0,0,1,.867-2.63,1.923,1.923,0,0,1,.889-.211,13.733,13.733,0,0,1,4.291-7.65c-.058-.226-.109-.459-.153-.685a5.3,5.3,0,0,1,.729.626c1.3,1.457,1.974,3.344,3.257,4.786a9.4,9.4,0,0,0,6.069,2.834,22.977,22.977,0,0,0,6.8-.546,19.927,19.927,0,0,1,5.624-.619l.539.073-.335.313a13.769,13.769,0,0,1-.634,8.742l-9.66-2.535,8.619,4.539a13.74,13.74,0,0,1-23.918-1.122,13.922,13.922,0,0,1-1.413-4.845A1.945,1.945,0,0,1,156.569,405.858Z" transform="translate(-64.584 -41.592)" opacity="0.1"/>
        </g>
        <path id="Path_119" data-name="Path 119" d="M316.911,79.41a14.738,14.738,0,0,0-8.553.933,12.618,12.618,0,0,1-10.272,0,14.4,14.4,0,0,0-12.079.24,7.489,7.489,0,0,1-3.475.867c-4.9,0-8.968-4.932-9.813-11.438a9.523,9.523,0,0,0,2.448-2.637c2.87-4.626,7.285-7.6,12.3-7.6s9.391,2.914,12.261,7.511a9.471,9.471,0,0,0,8.13,4.473h.131C311.855,71.739,315.228,74.864,316.911,79.41Z" transform="translate(-64.584 -41.592)" fill="#027bff" opacity="0.1"/>
        <path id="Path_120" data-name="Path 120" d="M331.788,59.011l-7.912,5.02,4.8-8.742a7.825,7.825,0,0,0-4.786-1.7h-.124a9.391,9.391,0,0,1-1.639-.124l-2.688,1.7,1.151-2.091A9.609,9.609,0,0,1,315.9,49.54l-4.816,3.009,3.031-5.515a14.043,14.043,0,0,0-10.753-5.442c-4.99,0-9.471,2.972-12.312,7.6a9.194,9.194,0,0,1-8.138,4.371h-.24c-5.508,0-9.981,6.244-9.981,13.959s4.473,13.951,9.981,13.951a7.489,7.489,0,0,0,3.475-.867,14.367,14.367,0,0,1,12.079-.233,12.655,12.655,0,0,0,10.272,0,14.389,14.389,0,0,1,11.97.233,7.541,7.541,0,0,0,3.439.845c5.515,0,9.981-6.244,9.981-13.951a17.746,17.746,0,0,0-2.1-8.487Z" transform="translate(-64.584 -41.592)" fill="#027bff" opacity="0.1"/>
        <path id="Path_121" data-name="Path 121" d="M152.263,180.341a21.127,21.127,0,0,0-12.217,1.326,18,18,0,0,1-14.673-.036,20.559,20.559,0,0,0-17.252.342,10.746,10.746,0,0,1-4.969,1.238c-6.994,0-12.815-7.045-14.024-16.341a13.412,13.412,0,0,0,3.5-3.767c4.1-6.608,10.454-10.855,17.587-10.855s13.4,4.2,17.485,10.731a13.492,13.492,0,0,0,11.657,6.389h.182C145.058,169.362,149.881,173.828,152.263,180.341Z" transform="translate(-64.584 -41.592)" fill="#027bff" opacity="0.1"/>
        <path id="Path_122" data-name="Path 122" d="M173.536,151.163l-11.307,7.169,6.863-12.48a11.176,11.176,0,0,0-6.841-2.441h-.182a13.23,13.23,0,0,1-2.346-.175l-3.817,2.47,1.646-2.987a13.624,13.624,0,0,1-6.7-5.1l-6.863,4.371,4.32-7.941c-4.014-4.816-9.42-7.766-15.365-7.766-7.132,0-13.485,4.24-17.587,10.848A13.15,13.15,0,0,1,103.7,143.4h-.386c-7.875,0-14.257,8.925-14.257,19.94s6.382,19.94,14.257,19.94a10.644,10.644,0,0,0,4.969-1.246,20.559,20.559,0,0,1,17.252-.335,18,18,0,0,0,14.673.036,20.581,20.581,0,0,1,17.106.328,10.673,10.673,0,0,0,4.91,1.217c7.875,0,14.257-8.932,14.257-19.94a25.324,25.324,0,0,0-2.943-12.181Z" transform="translate(-64.584 -41.592)" fill="#027bff" opacity="0.1"/>
        <path id="Path_123" data-name="Path 123" d="M609.5,107.823a14.745,14.745,0,0,1,8.553.933,12.6,12.6,0,0,0,10.265,0A14.4,14.4,0,0,1,640.4,109a7.511,7.511,0,0,0,3.475.867c4.9,0,8.976-4.932,9.821-11.438a9.42,9.42,0,0,1-2.448-2.637c-2.856-4.641-7.322-7.635-12.327-7.635s-9.383,2.914-12.254,7.511a9.471,9.471,0,0,1-8.145,4.5H618.4C614.524,100.151,611.143,103.277,609.5,107.823Z" transform="translate(-64.584 -41.592)" fill="#027bff" opacity="0.1"/>
        <path id="Path_124" data-name="Path 124" d="M594.584,87.424l7.912,5.005-4.808-8.742a7.839,7.839,0,0,1,4.786-1.7h.131a9.47,9.47,0,0,0,1.639-.124l2.681,1.7-1.151-2.091a9.624,9.624,0,0,0,4.735-3.519l4.8,3.045-3.038-5.515a14,14,0,0,1,10.76-5.442c4.99,0,9.471,2.972,12.312,7.6a9.187,9.187,0,0,0,8.138,4.371h.262c5.515,0,9.981,6.244,9.981,13.959s-4.466,13.951-9.981,13.951a7.533,7.533,0,0,1-3.475-.867,14.367,14.367,0,0,0-12.079-.233,12.64,12.64,0,0,1-10.265,0,14.4,14.4,0,0,0-11.977.233,7.518,7.518,0,0,1-3.439.845c-5.508,0-9.981-6.244-9.981-13.951a17.747,17.747,0,0,1,2.055-8.524Z" transform="translate(-64.584 -41.592)" fill="#027bff" opacity="0.1"/>
        <ellipse id="Ellipse_30" data-name="Ellipse 30" cx="83.781" cy="14.571" rx="83.781" ry="14.571" transform="translate(364.725 536.841)" fill="#027bff" opacity="0.1"/>
        <path id="Path_125" data-name="Path 125" d="M404.656,482.2l-129.817-1.668.386-3.329,6.273-54.924H395.505l8.385,54.924.641,4.167Z" fill="#d0d2d5"/>
        <path id="Path_126" data-name="Path 126" d="M404.532,481.37H339.751l-64.912-.838.386-3.329H403.891Z" opacity="0.1"/>
        <rect id="Rectangle_67" data-name="Rectangle 67" width="172.261" height="4.16" transform="translate(253.201 478.041)" fill="#d0d2d5"/>
        <path id="Path_127" data-name="Path 127" d="M654.4,133.992a10.833,10.833,0,0,0-10.782-10.87H162.55a10.833,10.833,0,0,0-10.782,10.884V425.6H654.4Z" transform="translate(-64.584 -41.592)" fill="#3f3d56"/>
        <path id="Path_128" data-name="Path 128" d="M151.768,422.687V456.84a10.782,10.782,0,0,0,10.782,10.782H643.614A10.782,10.782,0,0,0,654.4,456.84V422.687Z" transform="translate(-64.584 -41.592)" fill="#d0d2d5"/>
        <rect id="Rectangle_68" data-name="Rectangle 68" width="463.514" height="262.133" transform="translate(107.99 99.816)" fill="#fff"/>
        <path id="Path_129" data-name="Path 129" d="M405.581,454.662a11.219,11.219,0,0,0,8.837-4.291h0a11.7,11.7,0,0,0,.874-1.282l-6.171-1.042,6.666.044a11.234,11.234,0,0,0,.211-8.9l-8.939,4.633,8.247-6.061a11.234,11.234,0,1,0-18.556,12.574h0a11.219,11.219,0,0,0,8.83,4.32Z" transform="translate(-64.584 -41.592)" fill="#027bff"/>
        <path id="Path_130" data-name="Path 130" d="M352.231,426.024l51.791,52.017-7.948-52.017Z" opacity="0.1"/>
        <rect id="Rectangle_69" data-name="Rectangle 69" width="464.016" height="15.314" transform="translate(107.626 99.845)" fill="#444053" opacity="0.1"/>
        <rect id="Rectangle_70" data-name="Rectangle 70" width="139.805" height="9.318" rx="0.423" transform="translate(268.734 102.512)" fill="#027bff" opacity="0.3"/>
        <path id="Path_131" data-name="Path 131" d="M468.97,149.728h-.342l-.124-.109a2.834,2.834,0,0,0,.656-1.814,2.754,2.754,0,1,0-2.747,2.776,2.841,2.841,0,0,0,1.814-.663l.124.109v.342l2.135,2.135.634-.641Zm-2.557,0a1.909,1.909,0,1,1,1.36-.562,1.923,1.923,0,0,1-1.36.562Z" transform="translate(-64.584 -41.592)" fill="#3f3d56"/>
        <circle id="Ellipse_31" data-name="Ellipse 31" cx="2.805" cy="2.805" r="2.805" transform="translate(113.163 104.697)" fill="#fa5959" opacity="0.8"/>
        <circle id="Ellipse_32" data-name="Ellipse 32" cx="2.805" cy="2.805" r="2.805" transform="translate(120.878 104.697)" fill="#fed253" opacity="0.8"/>
        <circle id="Ellipse_33" data-name="Ellipse 33" cx="2.805" cy="2.805" r="2.805" transform="translate(128.6 104.697)" fill="#8ccf4d" opacity="0.8"/>
        <path id="Path_132" data-name="Path 132" d="M428.887,253.886c-6.36-8.451-15.576-13.784-25.834-13.784s-19.474,5.333-25.834,13.784a27.89,27.89,0,0,0,51.667,0Z" transform="translate(-64.584 -41.592)" fill="#027bff"/>
        <path id="Path_133" data-name="Path 133" d="M373.861,258.833a6.681,6.681,0,0,1-1.282-.729,5.143,5.143,0,0,1-1.413-1.829,5.231,5.231,0,1,0-8.538,1.268,5.83,5.83,0,0,0,1.239,1A3.6,3.6,0,0,1,365.257,260a10.52,10.52,0,0,0,2.419,3.176,21.13,21.13,0,0,0,3.315,2.331,48.307,48.307,0,0,0-2.725,14.25,19.706,19.706,0,0,0-5.551.9,8.952,8.952,0,0,0-2.572,1.282,6.164,6.164,0,0,0-.634-.044,5.238,5.238,0,1,0,4.9,7.081,3.344,3.344,0,0,1,2.7-2.186,12.207,12.207,0,0,1,1.348-.087,46.917,46.917,0,0,0,6.229,19.43,15.284,15.284,0,0,0-5.792,7.912,2.184,2.184,0,0,0-.415.3,4.961,4.961,0,0,0-.612.568,5.231,5.231,0,1,0,8.779,1.712,3.431,3.431,0,0,1,.852-3.7,14.679,14.679,0,0,1,1.239-1.064c5.908,6.9,12.939,11.321,21.718,11.846V276.893C388.854,276.259,378.742,268.7,373.861,258.833Zm72.729,23.109a5.776,5.776,0,0,0-.634.044,9.877,9.877,0,0,0-2.572-1.282,19.569,19.569,0,0,0-5.551-.9,49.366,49.366,0,0,0-2.725-14.243,21.13,21.13,0,0,0,3.315-2.331,11.351,11.351,0,0,0,2.506-3.329,3.074,3.074,0,0,1,1.289-1.275,5.231,5.231,0,1,0-7.285-2.309,4.968,4.968,0,0,1-1.413,1.829,13.734,13.734,0,0,1-1.282.94,32.087,32.087,0,0,1-26.577,17.842v46.852c8.742-.525,15.816-4.969,21.718-11.846.459.364.845.692,1.173,1a3.541,3.541,0,0,1,.918,3.81,5.231,5.231,0,1,0,8.8-1.7,4.968,4.968,0,0,0-.612-.568c-.24-.189-.415-.3-.415-.3-.8-2.914-2.7-5.515-5.828-7.912a46.917,46.917,0,0,0,6.229-19.43,11.583,11.583,0,0,1,1.29.087,3.5,3.5,0,0,1,2.8,2.186,5.231,5.231,0,0,0,10.09-1.588,5.311,5.311,0,0,0-5.238-5.581Z" transform="translate(-64.584 -41.592)" fill="#027bff"/>
        <path id="Path_134" data-name="Path 134" d="M560.714,584.508a6.964,6.964,0,0,0-1.581-1.756c-3.184-3.009-4.663-7.424-5.449-11.751s-1.013-8.742-2.273-12.975a42.793,42.793,0,0,0-2.564-6.316c-.729-1.559-1.646-4.612-2.98-5.7a1.966,1.966,0,0,0-.918-.444,10.819,10.819,0,0,0-2.637-3.512c-2.084-1.887-4.626-3.388-6.018-5.828a13.119,13.119,0,0,0-1.406-2.4c-.94-1.035-2.426-1.457-3.293-2.55-1.129-1.413-.874-3.439-.729-5.238s0-3.956-1.559-4.9c-.932-.576-2.135-.517-3.1-1.027-1.457-.729-2.033-2.564-2-4.2s.539-3.235.67-4.874c.408-5.216-3.031-10.4-1.7-15.459a31.434,31.434,0,0,1,2.506-5.362,11.2,11.2,0,0,0,.729-1.85,26.033,26.033,0,0,0,7.1,1.712c-4.014-9-2.994-19.466-4.867-29.141l.24-.328a15.183,15.183,0,0,0,3.074-8.64c0-3.6-1.683-6.965-2.441-10.491-.648-2.994-.619-6.127-1.457-9.07a27.431,27.431,0,0,0-2.3-5.26q-1.362-2.528-2.863-4.976-1.4-4.633-2.8-9.267c-1.311-4.335-2.659-8.742-5.209-12.487-.933-1.37-1.217-4.153-2.652-4.983a6.418,6.418,0,0,0-3.788-.663c-2.025-1.137-3.8-2.776-4.058-5.02a4.866,4.866,0,0,1,.146-1.457h.248c3.206-.291,4.83-3.118,6.5-5.6,2.7-4.007,1.668-9.427,0-13.988a9.471,9.471,0,0,0-2.186-3.854c-2.339-2.186-6.039-1.7-9.056-2.761-1.013-.35-1.96-.882-2.994-1.129a8.96,8.96,0,0,0-5.938,1.115,59.08,59.08,0,0,1-5.471,2.849c-1.923.729-4.3,1.3-4.772,3.278a3.643,3.643,0,0,0,.16,1.989,7.416,7.416,0,0,0,2.251,3.249,12.975,12.975,0,0,0,7.919,18.082c.554.889,1.071,1.792,1.544,2.717a8.962,8.962,0,0,1,1.268,5.3,16.348,16.348,0,0,0-1.457,1.785,34.333,34.333,0,0,0-4.371,9.74,103.2,103.2,0,0,0-3.519,13.31c-1.778,3.781-3.949,7.395-5.238,11.365a25.652,25.652,0,0,1-6.834-.918l-6.149-1.391c-2.142-.488-4.371-1.013-6.047-2.426-.889-.729-1.581-1.7-2.484-2.419s-2.717-1.566-3.708-.969a2.915,2.915,0,0,0-.5.386c-.9-1.829-1.763-3.643-2.812-5.413-1.508-2.477-3.752-4.743-6.593-5.216a6.71,6.71,0,0,0-4.947,1.151c-1.661,1.18-2.7,3.643-1.457,5.3a9.685,9.685,0,0,0,1.013,1.035,21.279,21.279,0,0,1,2.251,3.125,15.962,15.962,0,0,0,9.828,6.382l-.255.729c-.517,1.515-1.617,3.344-1.341,4.918l27.349,9.362a16.85,16.85,0,0,0,5.508,1.217,8.893,8.893,0,0,0,2.186-.291v1.457c.073,9.609-1.457,19.153-1.741,28.755-.051,1.756,0,3.643,1.107,5.012,1.238,1.5,3.439,1.8,5.355,1.457a12.45,12.45,0,0,0,1.355-.306,50.5,50.5,0,0,1,1.4,7.365l1.807,13.012a19.77,19.77,0,0,1,.284,4.036c-.211,3.053-1.821,5.785-2.987,8.6s-1.858,6.193-.328,8.83c.481.816,1.144,1.508,1.574,2.353a9.574,9.574,0,0,1,.729,4.138q.168,5.887.321,11.788a1.333,1.333,0,0,0-.918.182c-1.515,1.18-1.348,6.8-1.457,8.538-.117,2.914,0,5.887-.16,8.83a52.613,52.613,0,0,1-1.9,11.722,7.5,7.5,0,0,1-1.668,3.359,7.1,7.1,0,0,1-2.965,1.537,33.869,33.869,0,0,1-11.227,1.53,11.049,11.049,0,0,0-4.568.386c-1.428.583-2.579,2.186-2.062,3.643.444,1.224,1.792,1.807,3.009,2.266a47.739,47.739,0,0,1,8.014,3.686,21.665,21.665,0,0,0,3.1,1.756,15.964,15.964,0,0,0,3.191.787l12.917,2.229c2.645.452,5.828.729,7.511-1.457a6.621,6.621,0,0,0,1-4.284c-.073-2.914-.656-5.879-.277-8.793a27.061,27.061,0,0,1,1.355-5.049q1.931-5.734,3.876-11.46a60.225,60.225,0,0,0,3.111-11.722c.182-1.457.168-3.118-.947-4.029a2.58,2.58,0,0,0-.962-.5c-.044-3.512-.5-7.03-.306-10.542.051-.874.138-1.749.211-2.63a12.826,12.826,0,0,1,1.8,2.127c1.246,1.952,1.7,4.531,3.606,5.828,1.617,1.107,4.014,1.049,5.151,2.652a7.473,7.473,0,0,1,.816,1.974A14.075,14.075,0,0,0,525.439,554a23.319,23.319,0,0,0,1.8,4.619q1.61,3.4,3.206,6.783a79.091,79.091,0,0,0,3.643,7.118,20.073,20.073,0,0,1,2.441,4.706c1.027,3.6-.648,7.548-3.3,10.2s-6.149,4.174-9.595,5.6a2.7,2.7,0,0,0-.976.583,1.887,1.887,0,0,0-.444,1.268,4.113,4.113,0,0,0,2.972,3.643,11.118,11.118,0,0,0,4.976.182c9.311-1.129,18.592-3.4,26.825-7.926a9.469,9.469,0,0,0,3.2-2.47,3.737,3.737,0,0,0,.532-3.8Z" transform="translate(-64.584 -41.592)" fill="url(#linear-gradient-2)"/>
        <path id="Path_135" data-name="Path 135" d="M521.367,421.135q2.331,3.577,4.371,7.329a26.953,26.953,0,0,1,2.31,5.224c.845,2.914.823,6.025,1.457,9,.729,3.5,2.433,6.834,2.433,10.418a14.979,14.979,0,0,1-3.074,8.568,40.667,40.667,0,0,1-6.426,6.63,136.685,136.685,0,0,1-9.092-44.593,15.646,15.646,0,0,1,.685-6.265c.474-1.239,2.747-4.633,4.211-3.3.532.488.67,2.688,1,3.424a26.314,26.314,0,0,0,2.127,3.57Z" transform="translate(-64.584 -41.592)" fill="#2f2e41"/>
        <path id="Path_136" data-name="Path 136" d="M521.367,421.135q2.331,3.577,4.371,7.329a26.953,26.953,0,0,1,2.31,5.224c.845,2.914.823,6.025,1.457,9,.729,3.5,2.433,6.834,2.433,10.418a14.979,14.979,0,0,1-3.074,8.568,40.667,40.667,0,0,1-6.426,6.63,136.685,136.685,0,0,1-9.092-44.593,15.646,15.646,0,0,1,.685-6.265c.474-1.239,2.747-4.633,4.211-3.3.532.488.67,2.688,1,3.424a26.314,26.314,0,0,0,2.127,3.57Z" transform="translate(-64.584 -41.592)" opacity="0.1"/>
        <path id="Path_137" data-name="Path 137" d="M329.3,321.741c-5.763,5.755-6.455,8.291-9.915,9.435s-15.911,7.591-12,14.738l10.52,6.95.306.2,1.61,4.837-15.911,28.325s-26.227-11.992-28.8,5.748-.94,22.584-1.632,32.055.226,12.21-2.084,12.21-3.22-6.222-3.22-6.222-.146-.284-.4-.816c-3.431-7.132-26.723-59.492,10.586-95.481,0,0,17.281-1.137,21.441-20.953,2.87-13.7,12.91-12.516,19.583-9.726a22.133,22.133,0,0,1,5.989,3.519,29.49,29.49,0,0,1,4.291,5.1C331.562,314.667,332.6,318.434,329.3,321.741Z" transform="translate(-64.584 -41.592)" fill="#d0d2d5"/>
        <path id="Path_138" data-name="Path 138" d="M318.208,353.068l1.61,4.837-15.911,28.325s-26.227-11.992-28.8,5.748-.94,22.584-1.632,32.055.226,12.21-2.084,12.21-3.22-6.222-3.22-6.222-.146-.284-.4-.816c-1.158-8.859-7.03-60.679,14.257-57.926,0,0,17.273,8.072,20.035,4.852,2.186-2.55,11.89-17.215,15.838-23.233Z" transform="translate(-64.584 -41.592)" opacity="0.1"/>
        <path id="Path_139" data-name="Path 139" d="M329.661,311.622l-10.52,11.955s-12.217,16.348-14.753,15.656a11.828,11.828,0,0,0-2.309-.27,4.488,4.488,0,0,1-2.914-7.562c4.167-4.371,11.846-12.669,12.349-14.512s5.391-9.923,7.839-13.879a22.133,22.133,0,0,1,5.989,3.519,29.5,29.5,0,0,1,4.32,5.092Z" transform="translate(-64.584 -41.592)" opacity="0.1"/>
        <path id="Path_140" data-name="Path 140" d="M627.31,483.621c-1.785,3.57-10.928,16.96-14.928,22.81l-1.872,2.754s-.729,4.837-12.669-1.158S305.35,383.652,305.35,383.652l-1.9-5.712,13.842-20.727,307.491,118.8S629.619,479.01,627.31,483.621Z" transform="translate(-64.584 -41.592)" fill="#454b69"/>
        <path id="Path_141" data-name="Path 141" d="M612.382,506.432l-1.872,2.754s-.729,4.837-12.669-1.158S305.35,383.652,305.35,383.652l-1.9-5.712Z" transform="translate(-64.584 -41.592)" opacity="0.1"/>
        <path id="Path_142" data-name="Path 142" d="M443.159,429.105c-2.849-.466-6.01-.24-8.225,1.61a6.768,6.768,0,0,0-2.36,4.488c-.189,2.018.984,4.415,3.009,4.568a9.584,9.584,0,0,0,1.457-.095,21.775,21.775,0,0,1,3.818.321,15.583,15.583,0,0,0,13.281-5.362c1.741-2.186-.554-3.133-2.608-3.57C448.717,430.468,445.971,429.557,443.159,429.105Z" transform="translate(-64.584 -41.592)" fill="#fbbebe"/>
        <path id="Path_143" data-name="Path 143" d="M491.883,494.9l1.807,12.837a19.557,19.557,0,0,1,.277,4.014c-.211,3.023-1.821,5.734-2.98,8.531s-1.865,6.149-.328,8.742c.474.809,1.137,1.5,1.566,2.339a9.413,9.413,0,0,1,.729,4.1l.5,18.213a114.611,114.611,0,0,0,16.887-.095.94.94,0,0,0,.612-.19.991.991,0,0,0,.211-.663c.248-4.262-.5-8.531-.255-12.793.087-1.559.306-3.111.335-4.677.087-6.346-3.045-12.56-2.1-18.833a41.527,41.527,0,0,1,1.166-4.684c2.994-10.928,2.36-22.41,1.7-33.695a.794.794,0,0,0-.146-.51.773.773,0,0,0-.393-.211,20.727,20.727,0,0,0-18.782,3.57c-.794.641-2.8,1.26-3.322,2.025-.729,1.064.226,2.127.648,3.257a41.448,41.448,0,0,1,1.872,8.72Z" transform="translate(-64.584 -41.592)" fill="#3f3d56"/>
        <path id="Path_144" data-name="Path 144" d="M491.883,494.9l1.807,12.837a19.557,19.557,0,0,1,.277,4.014c-.211,3.023-1.821,5.734-2.98,8.531s-1.865,6.149-.328,8.742c.474.809,1.137,1.5,1.566,2.339a9.413,9.413,0,0,1,.729,4.1l.5,18.213a114.611,114.611,0,0,0,16.887-.095.94.94,0,0,0,.612-.19.991.991,0,0,0,.211-.663c.248-4.262-.5-8.531-.255-12.793.087-1.559.306-3.111.335-4.677.087-6.346-3.045-12.56-2.1-18.833a41.527,41.527,0,0,1,1.166-4.684c2.994-10.928,2.36-22.41,1.7-33.695a.794.794,0,0,0-.146-.51.773.773,0,0,0-.393-.211,20.727,20.727,0,0,0-18.782,3.57c-.794.641-2.8,1.26-3.322,2.025-.729,1.064.226,2.127.648,3.257a41.448,41.448,0,0,1,1.872,8.72Z" transform="translate(-64.584 -41.592)" opacity="0.1"/>
        <path id="Path_145" data-name="Path 145" d="M525.665,491.03a31.584,31.584,0,0,0-2.506,5.318c-1.326,5.02,2.105,10.2,1.7,15.343-.131,1.625-.634,3.206-.67,4.83a4.506,4.506,0,0,0,2,4.182c.969.5,2.186.444,3.1,1.013,1.537.94,1.712,3.074,1.559,4.867s-.408,3.8.729,5.194c.867,1.085,2.353,1.508,3.286,2.535a12.5,12.5,0,0,1,1.406,2.375c1.391,2.433,3.934,3.919,6.018,5.828s3.847,4.706,2.914,7.351c-.685,1.938-2.608,3.133-4.459,4.043a47.3,47.3,0,0,1-10.615,3.752,2.564,2.564,0,0,1-1.217.066,2.6,2.6,0,0,1-1.064-.729c-2.149-2.105-4.371-4.313-5.362-7.147a7.337,7.337,0,0,0-.816-1.952c-1.137-1.6-3.533-1.537-5.151-2.637-1.894-1.29-2.353-3.847-3.592-5.777s-3.053-3.082-4.371-4.779c-2.229-2.827-2.776-6.6-4.371-9.828-.678-1.37-1.544-2.652-2.084-4.08a22.278,22.278,0,0,1-1-5.275c-1.027-8.509-3.643-17.077-2-25.5.364-1.85.925-3.643,1.158-5.551.4-3.3-.233-6.681.255-9.974a2.747,2.747,0,0,1,1.1-2.12,2.914,2.914,0,0,1,1.253-.255,85.43,85.43,0,0,1,12.953.291c2.186.211,4.633.656,5.945,2.441,1.115,1.53,1.056,3.577,1.413,5.435.444,2.288,1.6,3.533,2.819,5.326S526.561,489.18,525.665,491.03Z" transform="translate(-64.584 -41.592)" fill="#3f3d56"/>
        <path id="Path_146" data-name="Path 146" d="M508.858,550.231c1.151,0,2.426-.073,3.315.656,1.107.911,1.122,2.579.947,4A60.031,60.031,0,0,1,510,566.543l-3.876,11.372a26.705,26.705,0,0,0-1.355,5.012c-.379,2.914.2,5.828.277,8.742a6.851,6.851,0,0,1-1.005,4.247c-1.646,2.12-4.859,1.872-7.5,1.457l-12.9-2.186a15.354,15.354,0,0,1-3.191-.78,22.3,22.3,0,0,1-3.1-1.741,47.654,47.654,0,0,0-8.014-3.643c-1.209-.452-2.564-1.027-3-2.244-.517-1.457.634-3.06,2.062-3.643a11.166,11.166,0,0,1,4.568-.393,34.243,34.243,0,0,0,11.219-1.515,7.1,7.1,0,0,0,2.958-1.53,7.285,7.285,0,0,0,1.7-3.431,51.119,51.119,0,0,0,1.953-11.656c.153-2.914.051-5.828.168-8.742.073-1.727-.095-7.285,1.421-8.473,1.158-.889,5.923,1.566,7.489,1.923A36.423,36.423,0,0,0,508.858,550.231Z" transform="translate(-64.584 -41.592)" fill="#2f2e41"/>
        <path id="Path_147" data-name="Path 147" d="M551.36,558.332c1.26,4.174,1.457,8.589,2.273,12.88s2.258,8.669,5.442,11.656a7.19,7.19,0,0,1,1.581,1.748,3.686,3.686,0,0,1-.546,3.81,9.565,9.565,0,0,1-3.2,2.455c-8.225,4.488-17.485,6.754-26.817,7.875a11.3,11.3,0,0,1-4.969-.182,4.1,4.1,0,0,1-2.965-3.643,1.858,1.858,0,0,1,.437-1.26,2.719,2.719,0,0,1,.984-.576c3.439-1.413,6.928-2.951,9.587-5.559s4.327-6.557,3.3-10.1a19.978,19.978,0,0,0-2.455-4.67,78.92,78.92,0,0,1-3.643-7.059l-3.206-6.724a17.634,17.634,0,0,1-2.047-6.163,29.576,29.576,0,0,0,11.817-1.894,18.582,18.582,0,0,0,4.859-2.914c1.238-1.035,2.368-2.965,4.036-1.617,1.341,1.078,2.186,4.116,2.972,5.653a41.521,41.521,0,0,1,2.557,6.28Z" transform="translate(-64.584 -41.592)" fill="#2f2e41"/>
        <path id="Path_148" data-name="Path 148" d="M504.384,391.36c.321,2.8,3.031,4.641,5.617,5.748l-16.37,5.224c1.056-2.025.2-4.5-.845-6.557a37.106,37.106,0,0,0-2.914-4.67c-.16-.226-.342-.51-.226-.772a.816.816,0,0,1,.459-.357c3.366-1.5,6.834-3.053,10.513-3.6,1.064-.153,3.074-.576,3.868.5S504.231,390.07,504.384,391.36Z" transform="translate(-64.584 -41.592)" fill="#fbbebe"/>
        <path id="Path_149" data-name="Path 149" d="M504.384,391.36c.321,2.8,3.031,4.641,5.617,5.748l-16.37,5.224c1.056-2.025.2-4.5-.845-6.557a37.106,37.106,0,0,0-2.914-4.67c-.16-.226-.342-.51-.226-.772a.816.816,0,0,1,.459-.357c3.366-1.5,6.834-3.053,10.513-3.6,1.064-.153,3.074-.576,3.868.5S504.231,390.07,504.384,391.36Z" transform="translate(-64.584 -41.592)" opacity="0.1"/>
        <circle id="Ellipse_34" data-name="Ellipse 34" cx="12.837" cy="12.837" r="12.837" transform="translate(417.449 326.36)" fill="#fbbebe"/>
        <path id="Path_150" data-name="Path 150" d="M483.745,486.426c1.246,1.493,3.439,1.785,5.355,1.457,4.48-.729,8.145-4.029,12.531-5.216,5.377-1.457,11.066.415,16.144,2.71s10.127,5.1,15.678,5.493c-5.02-11.19-2.149-24.654-6.95-35.938-1.173-2.761-2.812-5.42-3.074-8.407-.328-3.708,1.523-7.285,1.807-10.972.262-3.286-.729-6.557-1.676-9.689l-3.512-11.54c-1.311-4.306-2.659-8.684-5.2-12.385-.94-1.362-1.224-4.123-2.652-4.947-3.118-1.8-7.846.466-11.227.59s-6.462,2.528-8.436,5.245a33.726,33.726,0,0,0-4.371,9.668,91.913,91.913,0,0,0-3.883,15.467c-.109.787-.2,1.574-.277,2.368-.729,7.482.335,15.008.393,22.526v.051c.073,9.536-1.457,19.015-1.741,28.544C482.623,483.191,482.667,485.093,483.745,486.426Z" transform="translate(-64.584 -41.592)" fill="#2f2e41"/>
        <path id="Path_151" data-name="Path 151" d="M484.415,452.863a16.438,16.438,0,0,0,6.739-4.036,28.174,28.174,0,0,0,4.473-5.1,36.329,36.329,0,0,0,3.854-8.065,94.243,94.243,0,0,0,5.1-23.51c.189-2.186.248-4.531-1.056-6.265a5.275,5.275,0,0,0-6.375-1.545c-1.719.838-2.834,2.535-3.868,4.16a53.72,53.72,0,0,0-5.428,10.068c-.583,1.588-1.013,3.22-1.581,4.816a44.434,44.434,0,0,1-2,4.612c-.109.787-.2,1.574-.277,2.368C483.323,437.848,484.357,445.344,484.415,452.863Z" transform="translate(-64.584 -41.592)" opacity="0.1"/>
        <path id="Path_152" data-name="Path 152" d="M503.488,404.481c1.3,1.734,1.246,4.1,1.064,6.258a94.113,94.113,0,0,1-5.1,23.51,36.014,36.014,0,0,1-3.854,8.13,28.465,28.465,0,0,1-4.473,5.1c-2.477,2.258-5.493,4.276-8.852,4.306a16.873,16.873,0,0,1-5.508-1.2l-27.356-9.311c-.277-1.559.823-3.38,1.341-4.881l1.457-4.32a5.494,5.494,0,0,1,1.982-3.133c1.086-.648,2.8.24,3.708.962s1.588,1.668,2.477,2.4c1.683,1.4,3.9,1.923,6.047,2.4l6.142,1.377A25.645,25.645,0,0,0,479.4,437c1.712-5.231,4.969-9.835,6.812-15.022.568-1.588,1-3.227,1.588-4.816a53.526,53.526,0,0,1,5.428-10.068c1.027-1.617,2.142-3.315,3.868-4.16A5.267,5.267,0,0,1,503.488,404.481Z" transform="translate(-64.584 -41.592)" fill="#2f2e41"/>
        <path id="Path_153" data-name="Path 153" d="M498.964,383.689a6.475,6.475,0,0,0-.772-2.4,2.018,2.018,0,0,0-2.186-.962c-1.282.4-1.712,2.382-3.053,2.448-.9.044-1.552-.874-1.836-1.734A5.285,5.285,0,0,0,490,378.589a4.153,4.153,0,0,0-1.588-.728c-3.111-.984-6.324-2.8-7.358-5.894a3.526,3.526,0,0,1-.168-1.974c.474-1.96,2.914-2.55,4.772-3.257s3.643-1.916,5.464-2.834a8.979,8.979,0,0,1,5.938-1.1,30.945,30.945,0,0,1,2.994,1.115c3.016,1.049,6.71.561,9.048,2.739a9.347,9.347,0,0,1,2.186,3.818c1.632,4.531,2.666,9.908-.036,13.886-1.668,2.455-3.286,5.26-6.491,5.559C501.033,390.231,499.554,386.85,498.964,383.689Z" transform="translate(-64.584 -41.592)" fill="#2f2e41"/>
        <g id="Group_21" data-name="Group 21" opacity="0.1">
          <path id="Path_154" data-name="Path 154" d="M493.267,379.492a5.349,5.349,0,0,0-1.107-2.448,4.153,4.153,0,0,0-1.588-.728c-3.118-.984-6.324-2.8-7.365-5.894a3.592,3.592,0,0,1-.16-1.974,2.471,2.471,0,0,1,.386-.867,3.817,3.817,0,0,0-2.513,2.411,3.526,3.526,0,0,0,.168,1.974c1.035,3.1,4.247,4.91,7.358,5.894a4.153,4.153,0,0,1,1.588.729,5.326,5.326,0,0,1,1.115,2.448c.291.867.933,1.778,1.836,1.734s1.341-.867,1.916-1.559A2.319,2.319,0,0,1,493.267,379.492Z" transform="translate(-64.584 -41.592)"/>
          <path id="Path_155" data-name="Path 155" d="M506.905,388.351c-3.745.342-5.224-3.067-5.828-6.207a6.337,6.337,0,0,0-.729-2.4,2.025,2.025,0,0,0-2.186-.962,3.876,3.876,0,0,0-1.61,1.457,2.185,2.185,0,0,1,1.646,1.02,6.476,6.476,0,0,1,.772,2.4c.59,3.14,2.069,6.557,5.828,6.207a6.01,6.01,0,0,0,3.847-2A5.433,5.433,0,0,1,506.905,388.351Z" transform="translate(-64.584 -41.592)"/>
        </g>
        <ellipse id="Ellipse_35" data-name="Ellipse 35" cx="23.524" cy="4.524" rx="23.524" ry="4.524" transform="translate(568.852 473.232)" fill="#027bff"/>
        <ellipse id="Ellipse_36" data-name="Ellipse 36" cx="2.739" cy="3.584" rx="2.739" ry="3.584" transform="translate(589.244 472.249)" fill="#3f3d56"/>
        <ellipse id="Ellipse_37" data-name="Ellipse 37" cx="2.739" cy="3.584" rx="2.739" ry="3.584" transform="translate(589.244 467.863)" fill="#3f3d56"/>
        <ellipse id="Ellipse_38" data-name="Ellipse 38" cx="2.739" cy="3.584" rx="2.739" ry="3.584" transform="translate(589.244 463.485)" fill="#3f3d56"/>
        <ellipse id="Ellipse_39" data-name="Ellipse 39" cx="2.739" cy="3.584" rx="2.739" ry="3.584" transform="translate(589.244 459.099)" fill="#3f3d56"/>
        <ellipse id="Ellipse_40" data-name="Ellipse 40" cx="2.739" cy="3.584" rx="2.739" ry="3.584" transform="translate(589.244 454.713)" fill="#3f3d56"/>
        <ellipse id="Ellipse_41" data-name="Ellipse 41" cx="2.739" cy="3.584" rx="2.739" ry="3.584" transform="translate(589.244 450.335)" fill="#3f3d56"/>
        <ellipse id="Ellipse_42" data-name="Ellipse 42" cx="2.739" cy="3.584" rx="2.739" ry="3.584" transform="translate(589.244 445.949)" fill="#3f3d56"/>
        <path id="Path_156" data-name="Path 156" d="M666.818,461.161a13.249,13.249,0,0,0,1.02-1.5l-7.2-1.18,7.788.051a13.194,13.194,0,0,0,.248-10.4l-10.447,5.42,9.631-7.081a13.114,13.114,0,1,0-21.652,14.687,13.06,13.06,0,0,0-1.5,2.39l9.347,4.859-9.966-3.344a13.113,13.113,0,0,0,2.12,12.3,13.114,13.114,0,1,0,20.625,0,13.114,13.114,0,0,0,0-16.224Z" transform="translate(-64.584 -41.592)" fill="#027bff"/>
        <path id="Path_157" data-name="Path 157" d="M643.381,469.247a13.047,13.047,0,0,0,2.827,8.116,13.114,13.114,0,1,0,20.625,0C668.574,475.127,643.381,467.776,643.381,469.247Z" transform="translate(-64.584 -41.592)" opacity="0.1"/>
        <ellipse id="Ellipse_43" data-name="Ellipse 43" cx="33.869" cy="6.513" rx="33.869" ry="6.513" transform="translate(74.259 559.461)" fill="#027bff"/>
        <ellipse id="Ellipse_44" data-name="Ellipse 44" cx="3.941" cy="5.165" rx="3.941" ry="5.165" transform="translate(103.619 558.041)" fill="#3f3d56"/>
        <ellipse id="Ellipse_45" data-name="Ellipse 45" cx="3.941" cy="5.165" rx="3.941" ry="5.165" transform="translate(103.619 551.732)" fill="#3f3d56"/>
        <ellipse id="Ellipse_46" data-name="Ellipse 46" cx="3.941" cy="5.165" rx="3.941" ry="5.165" transform="translate(103.619 545.423)" fill="#3f3d56"/>
        <ellipse id="Ellipse_47" data-name="Ellipse 47" cx="3.941" cy="5.165" rx="3.941" ry="5.165" transform="translate(103.619 539.114)" fill="#3f3d56"/>
        <ellipse id="Ellipse_48" data-name="Ellipse 48" cx="3.941" cy="5.165" rx="3.941" ry="5.165" transform="translate(103.619 532.804)" fill="#3f3d56"/>
        <ellipse id="Ellipse_49" data-name="Ellipse 49" cx="3.941" cy="5.165" rx="3.941" ry="5.165" transform="translate(103.619 526.488)" fill="#3f3d56"/>
        <ellipse id="Ellipse_50" data-name="Ellipse 50" cx="3.941" cy="5.165" rx="3.941" ry="5.165" transform="translate(103.619 520.179)" fill="#3f3d56"/>
        <path id="Path_158" data-name="Path 158" d="M186.9,523.763a19.843,19.843,0,0,0,1.457-2.186l-10.36-1.7,11.2.087a18.942,18.942,0,0,0,.357-14.971l-15.022,7.824,13.842-10.2a18.891,18.891,0,1,0-31.2,21.127A18.816,18.816,0,0,0,155,527.18l13.456,6.994-14.345-4.816a18.891,18.891,0,0,0,3.1,17.769,18.891,18.891,0,1,0,29.695,0,18.884,18.884,0,0,0,0-23.357Z" transform="translate(-64.584 -41.592)" fill="#027bff"/>
        <path id="Path_159" data-name="Path 159" d="M153.167,535.471a18.831,18.831,0,0,0,4.041,11.654,18.891,18.891,0,1,0,29.7,0C189.418,543.907,153.167,533.322,153.167,535.471Z" transform="translate(-64.584 -41.592)" opacity="0.1"/>
      </g>
    </g>
  </g>
</svg>
